<svg width="688" height="39" viewBox="0 0 688 39" fill="none" xmlns="http://www.w3.org/2000/svg">
<path d="M38.52 38H26.52L42.3 0.499969H59.94L62.58 38H50.52L50.28 32.06H40.86L38.52 38ZM49.38 22.52V12.02H48.78L44.58 22.52H49.38ZM24.6 37.76L0 35.12H25.74L24.6 37.76ZM27.06 31.94L2.46 29.3H28.2L27.06 31.94ZM29.52 26.18L4.92 23.54H30.6L29.52 26.18ZM31.92 20.42L7.38 17.78H33.06L31.92 20.42ZM34.38 14.66L9.84 12.02H35.46L34.38 14.66ZM39.24 3.07997L14.76 0.499969H40.32L39.24 3.07997ZM36.78 8.83997L12.3 6.25997H37.86L36.78 8.83997ZM39.24 3.07997L40.32 0.499969H14.76L39.24 3.07997ZM97.2952 6.25997C101.655 6.25997 104.775 7.03997 106.655 8.59997C108.535 10.16 109.475 12.66 109.475 16.1C109.475 17.74 109.255 19.76 108.815 22.16C107.815 27.84 106.075 31.9 103.595 34.34C101.155 36.78 97.1952 38 91.7152 38H78.2752L83.7952 6.25997H97.2952ZM95.8552 15.02H92.3752L89.8552 29.42H93.3352C94.4952 29.42 95.3752 29.28 95.9752 29C96.6152 28.68 97.0152 28.06 97.1752 27.14L98.9152 17.24C98.9552 17.08 98.9752 16.76 98.9752 16.28C98.9752 15.44 97.9352 15.02 95.8552 15.02ZM76.2952 37.82L50.8552 35.12H76.7752L76.2952 37.82ZM78.3352 26.24L52.8952 23.54H78.8152L78.3352 26.24ZM79.3552 20.48L53.9152 17.78H79.8352L79.3552 20.48ZM80.3752 14.72L54.9352 12.02H80.8552L80.3752 14.72ZM81.3952 8.95997L55.9552 6.25997H81.8152L81.3952 8.95997ZM77.3152 32L51.8752 29.3H77.7952L77.3152 32ZM124.799 38L130.319 6.25997H140.879L135.299 38H124.799ZM122.819 37.82L97.3786 35.12H123.299L122.819 37.82ZM124.859 26.24L99.4186 23.54H125.339L124.859 26.24ZM125.879 20.48L100.439 17.78H126.359L125.879 20.48ZM126.899 14.72L101.459 12.02H127.379L126.899 14.72ZM127.919 8.95997L102.479 6.25997H128.339L127.919 8.95997ZM123.839 32L98.3986 29.3H124.319L123.839 32ZM179.534 15.26H173.054L169.094 38H158.534L162.494 15.26H155.834L157.454 6.25997H181.154L179.534 15.26ZM156.734 37.82L131.294 35.12H157.214L156.734 37.82ZM158.774 26.24L133.334 23.54H159.254L158.774 26.24ZM159.794 20.48L134.354 17.78H160.274L159.794 20.48ZM154.034 14.72L128.594 12.02H154.514L154.034 14.72ZM155.054 8.95997L129.614 6.25997H155.474L155.054 8.95997ZM157.754 32L132.314 29.3H158.234L157.754 32ZM193.337 37.82L167.897 35.12H193.817L193.337 37.82ZM194.357 32L168.917 29.3H194.837L194.357 32ZM191.957 14.72L166.517 12.02H191.417L191.957 14.72ZM190.757 8.95997L165.317 6.25997H190.217L190.757 8.95997ZM193.157 20.48L167.717 17.78H192.617L193.157 20.48ZM194.357 26.24L168.917 23.54H193.757L194.357 26.24ZM202.337 6.25997L203.657 17.78H204.017L208.997 6.25997H219.497L206.777 28.94L205.277 38H195.137L196.697 28.94L192.017 6.25997H202.337ZM245.369 38L245.129 33.14H237.569L235.709 38H225.329L238.649 6.25997H253.529L255.869 38H245.369ZM245.129 24.56V15.44H244.289L240.749 24.56H245.129ZM223.409 37.76L198.809 35.12H224.549L223.409 37.76ZM225.869 31.94L201.269 29.3H227.009L225.869 31.94ZM228.329 26.18L203.729 23.54H229.409L228.329 26.18ZM230.729 20.42L206.189 17.78H231.869L230.729 20.42ZM233.189 14.66L208.649 12.02H234.269L233.189 14.66ZM235.589 8.83997L211.109 6.25997H236.669L235.589 8.83997ZM281.609 37.82L256.289 35.12H282.209L281.609 37.82ZM282.929 32L257.669 29.3H283.589L282.929 32ZM284.309 26.24L259.049 23.54H284.909L284.309 26.24ZM285.629 20.48L260.429 17.78H286.289L285.629 20.48ZM287.009 14.72L261.809 12.02H287.609L287.009 14.72ZM288.329 8.95997L263.189 6.25997H288.989L288.329 8.95997ZM289.709 3.19997L264.569 0.499969H290.309L289.709 3.19997ZM295.289 38H283.409L292.169 0.499969H307.049L308.129 19.58H308.549L316.349 0.499969H331.229L326.789 38H314.849L317.369 19.82H316.949L309.449 38H300.749L299.489 19.82H299.189L295.289 38ZM364.255 38L364.015 33.14H356.455L354.595 38H344.215L357.535 6.25997H372.415L374.755 38H364.255ZM364.015 24.56V15.44H363.175L359.635 24.56H364.015ZM342.295 37.76L317.695 35.12H343.435L342.295 37.76ZM344.755 31.94L320.155 29.3H345.895L344.755 31.94ZM347.215 26.18L322.615 23.54H348.295L347.215 26.18ZM349.615 20.42L325.075 17.78H350.755L349.615 20.42ZM352.075 14.66L327.535 12.02H353.155L352.075 14.66ZM354.475 8.83997L329.995 6.25997H355.555L354.475 8.83997ZM409.004 38L402.824 26.12H402.584L400.484 38H390.404L395.924 6.25997H404.084L410.324 18.08H410.684L412.724 6.25997H422.744L417.164 38H409.004ZM388.424 37.82L362.984 35.12H388.904L388.424 37.82ZM390.464 26.24L365.024 23.54H390.944L390.464 26.24ZM391.484 20.48L366.044 17.78H391.964L391.484 20.48ZM392.504 14.72L367.064 12.02H392.984L392.504 14.72ZM393.524 8.95997L368.084 6.25997H393.944L393.524 8.95997ZM389.444 32L364.004 29.3H389.924L389.444 32ZM456.617 37.34C454.457 38.26 451.457 38.72 447.617 38.72C443.777 38.72 440.937 37.92 439.097 36.32C437.297 34.68 436.397 32.12 436.397 28.64C436.397 27.08 436.637 24.92 437.117 22.16C438.117 16.36 439.837 12.16 442.277 9.55997C444.757 6.95997 448.697 5.65997 454.097 5.65997C457.977 5.65997 460.637 6.09997 462.077 6.97997L459.017 15.32C457.017 14.76 455.197 14.48 453.557 14.48C451.917 14.48 450.757 14.62 450.077 14.9C449.437 15.18 449.037 15.72 448.877 16.52L446.537 29.36C447.377 29.56 448.817 29.66 450.857 29.66C452.937 29.66 455.177 29.22 457.577 28.34L456.617 37.34ZM435.017 23.54C434.857 24.78 434.757 25.62 434.717 26.06L411.077 23.54H435.017ZM436.157 17.78L435.617 20.3L412.157 17.78H436.157ZM434.657 29.3C434.657 29.94 434.737 30.78 434.897 31.82L411.317 29.3H434.657ZM438.257 12.02C437.777 13.06 437.437 13.86 437.237 14.42L414.557 12.02H438.257ZM435.917 35.12C436.397 36.08 436.917 36.82 437.477 37.34L416.537 35.12H435.917ZM443.477 6.25997C442.517 6.81997 441.697 7.47997 441.017 8.23997L422.597 6.25997H443.477ZM490.584 38L492.444 27.02H485.724L483.804 38H473.724L479.244 6.25997H489.384L487.404 17.24H494.184L496.104 6.25997H506.244L500.664 38H490.584ZM471.744 37.82L446.304 35.12H472.224L471.744 37.82ZM473.784 26.24L448.344 23.54H474.264L473.784 26.24ZM474.804 20.48L449.364 17.78H475.284L474.804 20.48ZM475.824 14.72L450.384 12.02H476.304L475.824 14.72ZM476.844 8.95997L451.404 6.25997H477.264L476.844 8.95997ZM472.764 32L447.324 29.3H473.244L472.764 32ZM539.392 38L539.152 33.14H531.592L529.732 38H519.352L532.672 6.25997H547.552L549.892 38H539.392ZM539.152 24.56V15.44H538.312L534.772 24.56H539.152ZM517.432 37.76L492.832 35.12H518.572L517.432 37.76ZM519.892 31.94L495.292 29.3H521.032L519.892 31.94ZM522.352 26.18L497.752 23.54H523.432L522.352 26.18ZM524.752 20.42L500.212 17.78H525.892L524.752 20.42ZM527.212 14.66L502.672 12.02H528.292L527.212 14.66ZM529.612 8.83997L505.132 6.25997H530.692L529.612 8.83997ZM584.141 38L577.961 26.12H577.721L575.621 38H565.541L571.061 6.25997H579.221L585.461 18.08H585.821L587.861 6.25997H597.881L592.301 38H584.141ZM563.561 37.82L538.121 35.12H564.041L563.561 37.82ZM565.601 26.24L540.161 23.54H566.081L565.601 26.24ZM566.621 20.48L541.181 17.78H567.101L566.621 20.48ZM567.641 14.72L542.201 12.02H568.121L567.641 14.72ZM568.661 8.95997L543.221 6.25997H569.081L568.661 8.95997ZM564.581 32L539.141 29.3H565.061L564.581 32ZM630.674 6.25997C635.034 6.25997 638.154 7.03997 640.034 8.59997C641.914 10.16 642.854 12.66 642.854 16.1C642.854 17.74 642.634 19.76 642.194 22.16C641.194 27.84 639.454 31.9 636.974 34.34C634.534 36.78 630.574 38 625.094 38H611.654L617.174 6.25997H630.674ZM629.234 15.02H625.754L623.234 29.42H626.714C627.874 29.42 628.754 29.28 629.354 29C629.994 28.68 630.394 28.06 630.554 27.14L632.294 17.24C632.334 17.08 632.354 16.76 632.354 16.28C632.354 15.44 631.314 15.02 629.234 15.02ZM609.674 37.82L584.234 35.12H610.154L609.674 37.82ZM611.714 26.24L586.274 23.54H612.194L611.714 26.24ZM612.734 20.48L587.294 17.78H613.214L612.734 20.48ZM613.754 14.72L588.314 12.02H614.234L613.754 14.72ZM614.774 8.95997L589.334 6.25997H615.194L614.774 8.95997ZM610.694 32L585.254 29.3H611.174L610.694 32ZM677.498 38L677.258 33.14H669.698L667.838 38H657.458L670.778 6.25997H685.658L687.998 38H677.498ZM677.258 24.56V15.44H676.418L672.878 24.56H677.258ZM655.538 37.76L630.938 35.12H656.678L655.538 37.76ZM657.998 31.94L633.397 29.3H659.138L657.998 31.94ZM660.458 26.18L635.857 23.54H661.538L660.458 26.18ZM662.858 20.42L638.317 17.78H663.998L662.858 20.42ZM665.318 14.66L640.777 12.02H666.398L665.318 14.66ZM667.718 8.83997L643.237 6.25997H668.798L667.718 8.83997Z" fill="black"/>
</svg>
