<svg width="692" height="500" viewBox="0 0 692 500" fill="none" xmlns="http://www.w3.org/2000/svg">
<path d="M136.955 280.884L179.839 120.839L339.884 77.9552L457.045 195.116L414.161 355.161L254.116 398.045L136.955 280.884Z" stroke="black" stroke-width="4"/>
<path d="M481.633 218.704L438.749 378.749L278.704 421.633L161.543 304.472L204.427 144.427L364.472 101.543L481.633 218.704Z" stroke="black" stroke-width="4"/>
<path d="M262.514 254.023L265.331 252.993L264.611 251.023H262.514V254.023ZM220.814 254.023V251.023H218.707L217.992 253.006L220.814 254.023ZM211.449 280V283H213.557L214.271 281.017L211.449 280ZM197.914 280L195.111 278.93L193.557 283H197.914V280ZM235.922 180.469V177.469H233.856L233.119 179.399L235.922 180.469ZM247.406 180.469L250.208 179.397L249.471 177.469H247.406V180.469ZM285.482 280V283H289.842L288.284 278.928L285.482 280ZM272.016 280L269.198 281.031L269.919 283H272.016V280ZM224.779 243.223L221.959 242.2L220.5 246.223H224.779V243.223ZM258.617 243.223V246.223H262.902L261.436 242.196L258.617 243.223ZM241.664 196.67L244.483 195.643L241.658 187.887L238.844 195.647L241.664 196.67ZM262.514 251.023H220.814V257.023H262.514V251.023ZM217.992 253.006L208.627 278.983L214.271 281.017L223.637 255.041L217.992 253.006ZM211.449 277H197.914V283H211.449V277ZM200.717 281.07L238.724 181.539L233.119 179.399L195.111 278.93L200.717 281.07ZM235.922 183.469H247.406V177.469H235.922V183.469ZM244.604 181.541L282.68 281.072L288.284 278.928L250.208 179.397L244.604 181.541ZM285.482 277H272.016V283H285.482V277ZM274.833 278.969L265.331 252.993L259.696 255.054L269.198 281.031L274.833 278.969ZM224.779 246.223H258.617V240.223H224.779V246.223ZM261.436 242.196L244.483 195.643L238.845 197.696L255.798 244.249L261.436 242.196ZM238.844 195.647L221.959 242.2L227.6 244.246L244.484 197.693L238.844 195.647Z" fill="black"/>
<path d="M320.506 228.469L323.291 227.353L322.536 225.469H320.506V228.469ZM353.045 309.68L350.26 310.795L353.045 317.746L355.83 310.795L353.045 309.68ZM385.584 228.469V225.469H383.554L382.799 227.353L385.584 228.469ZM402.605 228.469H405.605V225.469H402.605V228.469ZM402.605 328V331H405.605V328H402.605ZM389.48 328H386.48V331H389.48V328ZM389.48 289.24L386.482 289.152L386.48 289.196V289.24H389.48ZM390.711 247.404L393.71 247.492L387.931 246.277L390.711 247.404ZM358.035 328V331H360.056L360.815 329.127L358.035 328ZM347.986 328L345.206 329.128L345.966 331H347.986V328ZM315.379 247.609L318.159 246.482L312.38 247.703L315.379 247.609ZM316.678 289.24H319.678V289.193L319.676 289.147L316.678 289.24ZM316.678 328V331H319.678V328H316.678ZM303.553 328H300.553V331H303.553V328ZM303.553 228.469V225.469H300.553V228.469H303.553ZM317.721 229.585L350.26 310.795L355.83 308.564L323.291 227.353L317.721 229.585ZM355.83 310.795L388.369 229.585L382.799 227.353L350.26 308.564L355.83 310.795ZM385.584 231.469H402.605V225.469H385.584V231.469ZM399.605 228.469V328H405.605V228.469H399.605ZM402.605 325H389.48V331H402.605V325ZM392.48 328V289.24H386.48V328H392.48ZM392.479 289.328L393.71 247.492L387.712 247.316L386.482 289.152L392.479 289.328ZM387.931 246.277L355.255 326.873L360.815 329.127L393.491 248.531L387.931 246.277ZM358.035 325H347.986V331H358.035V325ZM350.766 326.872L318.159 246.482L312.599 248.737L345.206 329.128L350.766 326.872ZM312.38 247.703L313.679 289.334L319.676 289.147L318.377 247.516L312.38 247.703ZM313.678 289.24V328H319.678V289.24H313.678ZM316.678 325H303.553V331H316.678V325ZM306.553 328V228.469H300.553V328H306.553ZM303.553 231.469H320.506V225.469H303.553V231.469Z" fill="black"/>
<path d="M38.52 489H26.52L42.3 451.5H59.94L62.58 489H50.52L50.28 483.06H40.86L38.52 489ZM49.38 473.52V463.02H48.78L44.58 473.52H49.38ZM24.6 488.76L0 486.12H25.74L24.6 488.76ZM27.06 482.94L2.46 480.3H28.2L27.06 482.94ZM29.52 477.18L4.92 474.54H30.6L29.52 477.18ZM31.92 471.42L7.38 468.78H33.06L31.92 471.42ZM34.38 465.66L9.84 463.02H35.46L34.38 465.66ZM39.24 454.08L14.76 451.5H40.32L39.24 454.08ZM36.78 459.84L12.3 457.26H37.86L36.78 459.84ZM39.24 454.08L40.32 451.5H14.76L39.24 454.08ZM97.2952 457.26C101.655 457.26 104.775 458.04 106.655 459.6C108.535 461.16 109.475 463.66 109.475 467.1C109.475 468.74 109.255 470.76 108.815 473.16C107.815 478.84 106.075 482.9 103.595 485.34C101.155 487.78 97.1952 489 91.7152 489H78.2752L83.7952 457.26H97.2952ZM95.8552 466.02H92.3752L89.8552 480.42H93.3352C94.4952 480.42 95.3752 480.28 95.9752 480C96.6152 479.68 97.0152 479.06 97.1752 478.14L98.9152 468.24C98.9552 468.08 98.9752 467.76 98.9752 467.28C98.9752 466.44 97.9352 466.02 95.8552 466.02ZM76.2952 488.82L50.8552 486.12H76.7752L76.2952 488.82ZM78.3352 477.24L52.8952 474.54H78.8152L78.3352 477.24ZM79.3552 471.48L53.9152 468.78H79.8352L79.3552 471.48ZM80.3752 465.72L54.9352 463.02H80.8552L80.3752 465.72ZM81.3952 459.96L55.9552 457.26H81.8152L81.3952 459.96ZM77.3152 483L51.8752 480.3H77.7952L77.3152 483ZM124.799 489L130.319 457.26H140.879L135.299 489H124.799ZM122.819 488.82L97.3786 486.12H123.299L122.819 488.82ZM124.859 477.24L99.4186 474.54H125.339L124.859 477.24ZM125.879 471.48L100.439 468.78H126.359L125.879 471.48ZM126.899 465.72L101.459 463.02H127.379L126.899 465.72ZM127.919 459.96L102.479 457.26H128.339L127.919 459.96ZM123.839 483L98.3986 480.3H124.319L123.839 483ZM179.534 466.26H173.054L169.094 489H158.534L162.494 466.26H155.834L157.454 457.26H181.154L179.534 466.26ZM156.734 488.82L131.294 486.12H157.214L156.734 488.82ZM158.774 477.24L133.334 474.54H159.254L158.774 477.24ZM159.794 471.48L134.354 468.78H160.274L159.794 471.48ZM154.034 465.72L128.594 463.02H154.514L154.034 465.72ZM155.054 459.96L129.614 457.26H155.474L155.054 459.96ZM157.754 483L132.314 480.3H158.234L157.754 483ZM193.337 488.82L167.897 486.12H193.817L193.337 488.82ZM194.357 483L168.917 480.3H194.837L194.357 483ZM191.957 465.72L166.517 463.02H191.417L191.957 465.72ZM190.757 459.96L165.317 457.26H190.217L190.757 459.96ZM193.157 471.48L167.717 468.78H192.617L193.157 471.48ZM194.357 477.24L168.917 474.54H193.757L194.357 477.24ZM202.337 457.26L203.657 468.78H204.017L208.997 457.26H219.497L206.777 479.94L205.277 489H195.137L196.697 479.94L192.017 457.26H202.337ZM245.369 489L245.129 484.14H237.569L235.709 489H225.329L238.649 457.26H253.529L255.869 489H245.369ZM245.129 475.56V466.44H244.289L240.749 475.56H245.129ZM223.409 488.76L198.809 486.12H224.549L223.409 488.76ZM225.869 482.94L201.269 480.3H227.009L225.869 482.94ZM228.329 477.18L203.729 474.54H229.409L228.329 477.18ZM230.729 471.42L206.189 468.78H231.869L230.729 471.42ZM233.189 465.66L208.649 463.02H234.269L233.189 465.66ZM235.589 459.84L211.109 457.26H236.669L235.589 459.84ZM281.609 488.82L256.289 486.12H282.209L281.609 488.82ZM282.929 483L257.669 480.3H283.589L282.929 483ZM284.309 477.24L259.049 474.54H284.909L284.309 477.24ZM285.629 471.48L260.429 468.78H286.289L285.629 471.48ZM287.009 465.72L261.809 463.02H287.609L287.009 465.72ZM288.329 459.96L263.189 457.26H288.989L288.329 459.96ZM289.709 454.2L264.569 451.5H290.309L289.709 454.2ZM295.289 489H283.409L292.169 451.5H307.049L308.129 470.58H308.549L316.349 451.5H331.229L326.789 489H314.849L317.369 470.82H316.949L309.449 489H300.749L299.489 470.82H299.189L295.289 489ZM364.255 489L364.015 484.14H356.455L354.595 489H344.215L357.535 457.26H372.415L374.755 489H364.255ZM364.015 475.56V466.44H363.175L359.635 475.56H364.015ZM342.295 488.76L317.695 486.12H343.435L342.295 488.76ZM344.755 482.94L320.155 480.3H345.895L344.755 482.94ZM347.215 477.18L322.615 474.54H348.295L347.215 477.18ZM349.615 471.42L325.075 468.78H350.755L349.615 471.42ZM352.075 465.66L327.535 463.02H353.155L352.075 465.66ZM354.475 459.84L329.995 457.26H355.555L354.475 459.84ZM409.004 489L402.824 477.12H402.584L400.484 489H390.404L395.924 457.26H404.084L410.324 469.08H410.684L412.724 457.26H422.744L417.164 489H409.004ZM388.424 488.82L362.984 486.12H388.904L388.424 488.82ZM390.464 477.24L365.024 474.54H390.944L390.464 477.24ZM391.484 471.48L366.044 468.78H391.964L391.484 471.48ZM392.504 465.72L367.064 463.02H392.984L392.504 465.72ZM393.524 459.96L368.084 457.26H393.944L393.524 459.96ZM389.444 483L364.004 480.3H389.924L389.444 483ZM456.617 488.34C454.457 489.26 451.457 489.72 447.617 489.72C443.777 489.72 440.937 488.92 439.097 487.32C437.297 485.68 436.397 483.12 436.397 479.64C436.397 478.08 436.637 475.92 437.117 473.16C438.117 467.36 439.837 463.16 442.277 460.56C444.757 457.96 448.697 456.66 454.097 456.66C457.977 456.66 460.637 457.1 462.077 457.98L459.017 466.32C457.017 465.76 455.197 465.48 453.557 465.48C451.917 465.48 450.757 465.62 450.077 465.9C449.437 466.18 449.037 466.72 448.877 467.52L446.537 480.36C447.377 480.56 448.817 480.66 450.857 480.66C452.937 480.66 455.177 480.22 457.577 479.34L456.617 488.34ZM435.017 474.54C434.857 475.78 434.757 476.62 434.717 477.06L411.077 474.54H435.017ZM436.157 468.78L435.617 471.3L412.157 468.78H436.157ZM434.657 480.3C434.657 480.94 434.737 481.78 434.897 482.82L411.317 480.3H434.657ZM438.257 463.02C437.777 464.06 437.437 464.86 437.237 465.42L414.557 463.02H438.257ZM435.917 486.12C436.397 487.08 436.917 487.82 437.477 488.34L416.537 486.12H435.917ZM443.477 457.26C442.517 457.82 441.697 458.48 441.017 459.24L422.597 457.26H443.477ZM490.584 489L492.444 478.02H485.724L483.804 489H473.724L479.244 457.26H489.384L487.404 468.24H494.184L496.104 457.26H506.244L500.664 489H490.584ZM471.744 488.82L446.304 486.12H472.224L471.744 488.82ZM473.784 477.24L448.344 474.54H474.264L473.784 477.24ZM474.804 471.48L449.364 468.78H475.284L474.804 471.48ZM475.824 465.72L450.384 463.02H476.304L475.824 465.72ZM476.844 459.96L451.404 457.26H477.264L476.844 459.96ZM472.764 483L447.324 480.3H473.244L472.764 483ZM539.392 489L539.152 484.14H531.592L529.732 489H519.352L532.672 457.26H547.552L549.892 489H539.392ZM539.152 475.56V466.44H538.312L534.772 475.56H539.152ZM517.432 488.76L492.832 486.12H518.572L517.432 488.76ZM519.892 482.94L495.292 480.3H521.032L519.892 482.94ZM522.352 477.18L497.752 474.54H523.432L522.352 477.18ZM524.752 471.42L500.212 468.78H525.892L524.752 471.42ZM527.212 465.66L502.672 463.02H528.292L527.212 465.66ZM529.612 459.84L505.132 457.26H530.692L529.612 459.84ZM584.141 489L577.961 477.12H577.721L575.621 489H565.541L571.061 457.26H579.221L585.461 469.08H585.821L587.861 457.26H597.881L592.301 489H584.141ZM563.561 488.82L538.121 486.12H564.041L563.561 488.82ZM565.601 477.24L540.161 474.54H566.081L565.601 477.24ZM566.621 471.48L541.181 468.78H567.101L566.621 471.48ZM567.641 465.72L542.201 463.02H568.121L567.641 465.72ZM568.661 459.96L543.221 457.26H569.081L568.661 459.96ZM564.581 483L539.141 480.3H565.061L564.581 483ZM630.674 457.26C635.034 457.26 638.154 458.04 640.034 459.6C641.914 461.16 642.854 463.66 642.854 467.1C642.854 468.74 642.634 470.76 642.194 473.16C641.194 478.84 639.454 482.9 636.974 485.34C634.534 487.78 630.574 489 625.094 489H611.654L617.174 457.26H630.674ZM629.234 466.02H625.754L623.234 480.42H626.714C627.874 480.42 628.754 480.28 629.354 480C629.994 479.68 630.394 479.06 630.554 478.14L632.294 468.24C632.334 468.08 632.354 467.76 632.354 467.28C632.354 466.44 631.314 466.02 629.234 466.02ZM609.674 488.82L584.234 486.12H610.154L609.674 488.82ZM611.714 477.24L586.274 474.54H612.194L611.714 477.24ZM612.734 471.48L587.294 468.78H613.214L612.734 471.48ZM613.754 465.72L588.314 463.02H614.234L613.754 465.72ZM614.774 459.96L589.334 457.26H615.194L614.774 459.96ZM610.694 483L585.254 480.3H611.174L610.694 483ZM677.498 489L677.258 484.14H669.698L667.838 489H657.458L670.778 457.26H685.658L687.998 489H677.498ZM677.258 475.56V466.44H676.418L672.878 475.56H677.258ZM655.538 488.76L630.938 486.12H656.678L655.538 488.76ZM657.998 482.94L633.397 480.3H659.138L657.998 482.94ZM660.458 477.18L635.857 474.54H661.538L660.458 477.18ZM662.858 471.42L638.317 468.78H663.998L662.858 471.42ZM665.318 465.66L640.777 463.02H666.398L665.318 465.66ZM667.718 459.84L643.237 457.26H668.798L667.718 459.84Z" fill="black"/>
</svg>
