<svg width="97" height="106" viewBox="0 0 97 106" fill="none" xmlns="http://www.w3.org/2000/svg">
<path d="M69.5137 77.0234L72.3311 75.9929L71.6107 74.0234H69.5137V77.0234ZM27.8145 77.0234V74.0234H25.707L24.9923 76.006L27.8145 77.0234ZM18.4492 103V106H20.5567L21.2714 104.017L18.4492 103ZM4.91406 103L2.11145 101.93L0.557164 106H4.91406V103ZM42.9219 3.46875V0.46875H40.8562L40.1193 2.39852L42.9219 3.46875ZM54.4062 3.46875L57.2082 2.39684L56.4706 0.46875H54.4062V3.46875ZM92.4824 103V106H96.8421L95.2844 101.928L92.4824 103ZM79.0156 103L76.1982 104.031L76.9186 106H79.0156V103ZM31.7793 66.2227L28.9591 65.1998L27.5 69.2227H31.7793V66.2227ZM65.6172 66.2227V69.2227H69.9024L68.4361 65.1961L65.6172 66.2227ZM48.6641 19.6699L51.483 18.6434L48.6584 10.8871L45.8438 18.647L48.6641 19.6699ZM69.5137 74.0234H27.8145V80.0234H69.5137V74.0234ZM24.9923 76.006L15.627 101.983L21.2714 104.017L30.6366 78.0409L24.9923 76.006ZM18.4492 100H4.91406V106H18.4492V100ZM7.71667 104.07L45.7245 4.53898L40.1193 2.39852L2.11145 101.93L7.71667 104.07ZM42.9219 6.46875H54.4062V0.46875H42.9219V6.46875ZM51.6043 4.54066L89.6805 104.072L95.2844 101.928L57.2082 2.39684L51.6043 4.54066ZM92.4824 100H79.0156V106H92.4824V100ZM81.8331 101.969L72.3311 75.9929L66.6962 78.054L76.1982 104.031L81.8331 101.969ZM31.7793 69.2227H65.6172V63.2227H31.7793V69.2227ZM68.4361 65.1961L51.483 18.6434L45.8452 20.6965L62.7983 67.2492L68.4361 65.1961ZM45.8438 18.647L28.9591 65.1998L34.5995 67.2456L51.4843 20.6928L45.8438 18.647Z" fill="black"/>
</svg>
