<svg width="106" height="106" viewBox="0 0 106 106" fill="none" xmlns="http://www.w3.org/2000/svg">
<path d="M20.5059 3.46875L23.2906 2.35296L22.5357 0.46875H20.5059V3.46875ZM53.0449 84.6797L50.2601 85.7955L53.0449 92.7457L55.8297 85.7955L53.0449 84.6797ZM85.584 3.46875V0.46875H83.5542L82.7992 2.35296L85.584 3.46875ZM102.605 3.46875H105.605V0.46875H102.605V3.46875ZM102.605 103V106H105.605V103H102.605ZM89.4805 103H86.4805V106H89.4805V103ZM89.4805 64.2402L86.4818 64.152L86.4805 64.1961V64.2402H89.4805ZM90.7109 22.4043L93.7096 22.4925L87.9307 21.2771L90.7109 22.4043ZM58.0352 103V106H60.0561L60.8154 104.127L58.0352 103ZM47.9863 103L45.2063 104.128L45.9658 106H47.9863V103ZM15.3789 22.6094L18.1589 21.4818L12.3804 22.7029L15.3789 22.6094ZM16.6777 64.2402H19.6777V64.1935L19.6763 64.1467L16.6777 64.2402ZM16.6777 103V106H19.6777V103H16.6777ZM3.55273 103H0.552734V106H3.55273V103ZM3.55273 3.46875V0.46875H0.552734V3.46875H3.55273ZM17.7211 4.58454L50.2601 85.7955L55.8297 83.5639L23.2906 2.35296L17.7211 4.58454ZM55.8297 85.7955L88.3688 4.58454L82.7992 2.35296L50.2601 83.5639L55.8297 85.7955ZM85.584 6.46875H102.605V0.46875H85.584V6.46875ZM99.6055 3.46875V103H105.605V3.46875H99.6055ZM102.605 100H89.4805V106H102.605V100ZM92.4805 103V64.2402H86.4805V103H92.4805ZM92.4792 64.3284L93.7096 22.4925L87.7122 22.3161L86.4818 64.152L92.4792 64.3284ZM87.9307 21.2771L55.255 101.873L60.8154 104.127L93.4911 23.5315L87.9307 21.2771ZM58.0352 100H47.9863V106H58.0352V100ZM50.7663 101.872L18.1589 21.4818L12.5989 23.737L45.2063 104.128L50.7663 101.872ZM12.3804 22.7029L13.6792 64.3338L19.6763 64.1467L18.3774 22.5158L12.3804 22.7029ZM13.6777 64.2402V103H19.6777V64.2402H13.6777ZM16.6777 100H3.55273V106H16.6777V100ZM6.55273 103V3.46875H0.552734V103H6.55273ZM3.55273 6.46875H20.5059V0.46875H3.55273V6.46875Z" fill="black"/>
</svg>
